<svg width="65" height="51" viewBox="0 0 65 51" fill="none" xmlns="http://www.w3.org/2000/svg">
<path fill-rule="evenodd" clip-rule="evenodd" d="M59.644 12.3004C59.644 12.3004 65.8169 18.4156 64.8088 23.0113C63.508 28.9412 54.696 32.2521 50.4622 33.5369H14.9971C9.41143 32.3879 0 28.8671 0 23.0113C0 18.1562 6.12126 12.3004 6.12126 12.3004C5.5984 11.0897 5.01178 8.18688 6.84816 6.26098C8.68453 4.33508 11.7197 5.45852 13.0077 6.26098C16.3442 3.87467 20.5993 1.54961 25.0972 0.922429C25.0972 0.922429 32.6339 -1.15304 41.548 0.922429C45.602 1.8663 49.7113 4.30487 52.9871 6.68343C54.0839 5.81428 56.8282 4.51298 59.0319 6.26098C61.2355 8.00899 60.3582 11.0156 59.644 12.3004ZM22.7634 21.8995C22.7634 24.2534 20.7936 26.1616 18.3637 26.1616C15.9339 26.1616 13.9641 24.2534 13.9641 21.8995C13.9641 19.5456 15.9339 17.6373 18.3637 17.6373C20.7936 17.6373 22.7634 19.5456 22.7634 21.8995ZM47.3632 26.1616C49.793 26.1616 51.7628 24.2534 51.7628 21.8995C51.7628 19.5456 49.793 17.6373 47.3632 17.6373C44.9333 17.6373 42.9635 19.5456 42.9635 21.8995C42.9635 24.2534 44.9333 26.1616 47.3632 26.1616Z" fill="url(#paint0_linear_79_14)"/>
<path fill-rule="evenodd" clip-rule="evenodd" d="M14.538 39.3919C13.6601 38.9 12.641 38.6185 11.5539 38.6185C8.25776 38.6185 5.58569 41.207 5.58569 44.4001C5.58569 47.5932 8.25776 50.1818 11.5539 50.1818C12.641 50.1818 13.6601 49.9002 14.538 49.4083V39.3919Z" fill="url(#paint1_linear_79_14)"/>
<path fill-rule="evenodd" clip-rule="evenodd" d="M50.6534 49.4083C51.5312 49.9002 52.5504 50.1818 53.6375 50.1818C56.9336 50.1818 59.6057 47.5932 59.6057 44.4001C59.6057 41.207 56.9336 38.6185 53.6375 38.6185C52.5504 38.6185 51.5312 38.9 50.6534 39.3919L50.6534 49.4083Z" fill="url(#paint2_linear_79_14)"/>
<defs>
<linearGradient id="paint0_linear_79_14" x1="23.7394" y1="10.0371" x2="51.7296" y2="54.5809" gradientUnits="userSpaceOnUse">
<stop stop-color="#FBFBFB"/>
<stop offset="1" stop-color="#FBFBFB" stop-opacity="0.17"/>
</linearGradient>
<linearGradient id="paint1_linear_79_14" x1="8.85931" y1="42.0792" x2="18.5633" y2="48.2555" gradientUnits="userSpaceOnUse">
<stop stop-color="#FBFBFB"/>
<stop offset="1" stop-color="#FBFBFB" stop-opacity="0.17"/>
</linearGradient>
<linearGradient id="paint2_linear_79_14" x1="56.3321" y1="46.721" x2="46.6281" y2="40.5447" gradientUnits="userSpaceOnUse">
<stop stop-color="#FBFBFB"/>
<stop offset="1" stop-color="#FBFBFB" stop-opacity="0.17"/>
</linearGradient>
</defs>
</svg>
